# xmcd CD database file
#
# Track frame offsets:
#	150
#	15413
#	31291
#	44984
#	62688
#	74548
#	87769
#	102947
#	119567
#	134700
#	151601
#	170600
#	186617
#	202893
#	221271
#	250708
#	272348
#	284633
#	308514
#
# Disc length: 4400 seconds
#
# Revision: 0
# Processed by: cddbd v1.5.2PL0 Copyright (c) Steve Scherf et al.
# Submitted via: CDex 1.51
#
DISCID=14112e13
DTITLE=Various New Country Artists - Country CD 04
DYEAR=1900
DGENRE=Country
TTITLE0=Brooks and Dunn - She's not the cheating kind
TTITLE1=Buddy Jewell - Sweet Southern Comfort
TTITLE2=Toby Keith - Sweet
TTITLE3=Michelle Wright - Take It Like a Man
TTITLE4=Jim Reeves and Deborah Allen - Take Me in Your Arms and Hold me
TTITLE5=Brooks and Dunn - That's What She Gets For Lovin me
TTITLE6=George Strait - The Best Day Of My Life
TTITLE7=Jim Brickman and Michelle Wright - The Greatest Gift of all
TTITLE8=Vince Gill and Reba McEntire - The Heart Won't Lie
TTITLE9=Merle Haggard and Willie Nelson - The Old Rugged Cross
TTITLE10=Vince Gill (w/ Patty Loveless) - When I Call Your Name
TTITLE11=Pam Tillis - When You Say Nothing At All
TTITLE12=Brooks and Dunn - You Can't Take The Honky Tonk
TTITLE13=Patty Loveless - You Don't Even Know Who I Am
TTITLE14=Shania Twain and Elton John - You're Still The One/The Way
TTITLE15=Brooks and Dunn - Your gonna miss me when I'm gone
TTITLE16=Joe Diffie - New Way To Light Up An Old Fla
TTITLE17=Keith Urban - Somebody like you
TTITLE18=Kenny Chesney - When The Sun Goes Down
EXTD=
EXTT0=
EXTT1=
EXTT2=
EXTT3=
EXTT4=
EXTT5=
EXTT6=
EXTT7=
EXTT8=
EXTT9=
EXTT10=
EXTT11=
EXTT12=
EXTT13=
EXTT14=
EXTT15=
EXTT16=
EXTT17=
EXTT18=
PLAYORDER=
